<?xml version="1.0" standalone="no"?>
<!DOCTYPE svg PUBLIC "-//W3C//DTD SVG 20010904//EN"
 "http://www.w3.org/TR/2001/REC-SVG-20010904/DTD/svg10.dtd">
<svg version="1.0" xmlns="http://www.w3.org/2000/svg"
 width="1024.000000pt" height="1024.000000pt" viewBox="0 0 1024.000000 1024.000000"
 preserveAspectRatio="xMidYMid meet">

<g transform="translate(0.000000,1024.000000) scale(0.100000,-0.100000)"
fill="#000000" stroke="none">
<path d="M6177 8505 c-53 -18 -85 -51 -98 -99 -17 -63 -7 -332 14 -373 35 -67
-20 -63 845 -63 l783 0 24 -25 25 -24 0 -703 c0 -777 -3 -744 63 -792 26 -19
42 -21 195 -21 150 0 171 2 202 20 75 44 71 -16 68 985 l-3 895 -24 52 c-28
64 -105 138 -157 152 -27 7 -334 11 -969 11 -762 -1 -937 -3 -968 -15z"/>
<path d="M2155 8503 c-94 -22 -155 -69 -191 -148 l-24 -50 0 -904 c0 -892 0
-904 20 -937 34 -55 81 -66 258 -62 164 3 179 8 226 72 21 27 21 40 26 736 5
708 5 710 26 731 l22 21 763 -1 c853 -2 807 -5 856 68 22 32 23 44 23 201 0
157 -1 169 -23 201 -12 19 -40 43 -62 54 -39 20 -62 20 -970 22 -511 0 -939
-1 -950 -4z"/>
<path d="M3479 7291 c-307 -6 -339 -8 -357 -24 -42 -38 -43 -52 -40 -565 l3
-492 28 -27 27 -28 520 0 520 0 27 28 28 27 0 504 c-1 457 -3 506 -18 529 -9
15 -25 30 -34 35 -26 14 -323 19 -704 13z"/>
<path d="M6408 7291 l-348 -6 -27 -28 -28 -27 -3 -497 c-2 -362 1 -505 9 -526
24 -57 23 -57 556 -57 370 0 494 3 513 13 13 7 35 28 47 46 l23 34 0 481 c0
613 18 570 -240 571 -85 1 -311 -1 -502 -4z"/>
<path d="M2765 5570 c-583 -4 -775 -8 -791 -17 -12 -7 -26 -25 -31 -40 -13
-36 2 -874 17 -998 29 -244 79 -468 148 -660 155 -433 373 -803 641 -1088 276
-293 718 -589 1110 -742 370 -144 851 -215 1361 -201 601 16 1047 124 1474
356 428 234 786 544 1029 891 221 318 420 766 501 1130 64 288 69 337 73 827
3 250 2 465 -1 478 -4 14 -15 33 -26 44 -20 20 -37 20 -972 20 -736 0 -959 -3
-978 -13 -14 -6 -36 -34 -50 -62 -24 -48 -25 -59 -31 -320 -4 -195 -11 -291
-23 -345 -52 -236 -133 -381 -296 -532 -88 -82 -153 -124 -267 -173 -264 -114
-691 -136 -953 -48 -349 117 -601 374 -681 695 -17 68 -22 138 -31 393 -11
346 -15 366 -78 397 -30 15 -60 18 -205 16 -93 -2 -516 -5 -940 -8z m673 -567
c5 -10 12 -63 15 -118 13 -232 109 -511 246 -715 385 -571 1176 -830 1926
-630 185 49 356 128 521 241 117 79 307 273 387 395 145 219 236 480 253 727
4 56 12 101 19 107 8 7 178 9 486 8 l474 -3 3 -95 c9 -263 -65 -675 -175 -965
-227 -603 -625 -1044 -1203 -1334 -279 -140 -648 -235 -1008 -262 -189 -14
-540 -6 -703 15 -273 37 -610 133 -804 229 -579 288 -978 713 -1210 1291 -99
247 -151 459 -180 733 -15 142 -20 375 -8 386 3 4 219 7 479 7 441 0 474 -1
482 -17z"/>
<path d="M2050 2941 c-51 -11 -78 -28 -95 -61 -13 -25 -15 -99 -15 -502 0
-535 -1 -521 79 -590 73 -62 83 -63 623 -63 476 0 487 0 515 21 55 40 63 72
63 252 0 179 -7 210 -58 247 -25 19 -47 20 -340 25 l-314 5 -19 24 c-18 21
-19 42 -19 280 0 288 -4 307 -70 346 -30 17 -55 20 -175 22 -77 1 -156 -2
-175 -6z"/>
<path d="M7890 2941 c-49 -10 -77 -27 -98 -58 -15 -24 -18 -62 -22 -295 -5
-262 -5 -268 -28 -290 -22 -23 -27 -23 -332 -28 l-309 -5 -31 -30 c-44 -42
-52 -87 -48 -265 3 -173 10 -194 71 -227 29 -17 71 -18 502 -18 415 0 477 2
526 17 72 23 133 68 159 117 19 39 20 58 20 511 0 513 -1 518 -56 555 -25 17
-50 20 -174 22 -80 1 -161 -2 -180 -6z"/>
</g>
</svg>
